<?xml version="1.0" encoding="utf-8"?>
<svg xmlns="http://www.w3.org/2000/svg" x="0px" y="0px"
     width="24px" height="24px" viewBox="0 0 24 24" style="enable-background:new 0 0 24 24;" xml:space="preserve">
<style type="text/css">
	.st0{fill:none;stroke:#828282;stroke-width:1.1744;stroke-miterlimit:10;}
	.st1{fill:#BEBEBE;stroke:#828282;stroke-width:1.1744;stroke-miterlimit:10;}
</style>
    <rect x="3.4" y="1.5" class="st0" width="3.5" height="7"/>
    <path class="st1" d="M7,14.8V8.6H3.4v6.3c-1.4,0.7-2.3,2.1-2.3,3.7c0,2.3,1.8,4.1,4.1,4.1s4.1-1.8,4.1-4.1C9.3,16.9,8.4,15.5,7,14.8
	z"/>
    <path class="st0" d="M22.9,19.9c0-1.8-2.3-6.4-3.2-6.4c-0.9,0-3.2,4.6-3.2,6.4s1.4,3.2,3.2,3.2S22.9,21.7,22.9,19.9z"/>
    <path class="st0" d="M22.9,8.9c0-1.4-1.9-5.2-2.6-5.2c-0.7,0-2.6,3.8-2.6,5.2s1.2,2.6,2.6,2.6C21.7,11.5,22.9,10.3,22.9,8.9z"/>
    <path class="st0" d="M15.5,12.5c0-1.1-1.4-3.8-1.9-3.8c-0.5,0-1.9,2.8-1.9,3.8s0.9,1.9,1.9,1.9S15.5,13.5,15.5,12.5z"/>
    <path class="st0" d="M16.8,3.5c0-0.7-0.9-2.6-1.3-2.6c-0.4,0-1.3,1.9-1.3,2.6s0.6,1.3,1.3,1.3S16.8,4.3,16.8,3.5z"/>
</svg>
