<?xml version="1.0" encoding="utf-8"?>
<svg xmlns="http://www.w3.org/2000/svg" x="0px" y="0px"
     width="24px" height="24px" viewBox="0 0 24 24" style="enable-background:new 0 0 24 24;" xml:space="preserve">
<style type="text/css">
	.st0{fill:none;stroke:#828282;stroke-width:1.7507;stroke-miterlimit:10;}
	.st1{fill:#828282;}
</style>
    <path class="st0" d="M2.9,21.7h18.3c1.4,0,2.3-1.5,1.6-2.8L13.6,3.1c-0.7-1.2-2.5-1.2-3.2,0L1.3,18.9C0.5,20.1,1.4,21.7,2.9,21.7z"/>
    <circle class="st1" cx="12" cy="17.5" r="1.1"/>
    <path class="st1" d="M12,7.8c-0.6,0-1.2,0.5-1.2,1.2l0.3,5.7c0,0.5,0.4,0.8,0.8,0.8s0.8-0.4,0.8-0.8L13.2,9
	C13.2,8.4,12.6,7.8,12,7.8z"/>
</svg>
