<?xml version="1.0" encoding="utf-8"?>
<svg xmlns="http://www.w3.org/2000/svg" x="0px" y="0px"
     width="24px" height="24px" viewBox="0 0 24 24" style="enable-background:new 0 0 24 24;" xml:space="preserve">
<style type="text/css">
	.st0{fill:none;stroke:#828282;stroke-width:1.1176;stroke-miterlimit:10;}
</style>
    <path class="st0" d="M9.2,19.8c0-1.9-2.4-6.7-3.4-6.7c-0.9,0-3.4,4.9-3.4,6.7c0,1.9,1.5,3.4,3.4,3.4S9.2,21.7,9.2,19.8z"/>
    <path class="st0" d="M21.5,15.4c0-1.9-2.4-6.7-3.4-6.7c-0.9,0-3.4,4.9-3.4,6.7s1.5,3.4,3.4,3.4S21.5,17.2,21.5,15.4z"/>
    <path class="st0" d="M14.2,7.5c0-1.9-2.4-6.7-3.4-6.7c-0.9,0-3.4,4.9-3.4,6.7s1.5,3.4,3.4,3.4S14.2,9.4,14.2,7.5z"/>
</svg>