<?xml version="1.0" encoding="utf-8"?>
<svg xmlns="http://www.w3.org/2000/svg" x="0px" y="0px"
     width="24px" height="24px" viewBox="0 0 24 24" style="enable-background:new 0 0 24 24;" xml:space="preserve">
<style type="text/css">
	.st0{fill:none;stroke:#999999;stroke-width:1.125;stroke-linecap:round;stroke-miterlimit:10;}
	.st1{fill:#999999;}
	.st2{fill:none;stroke:#999999;stroke-width:1.6875;stroke-linecap:round;stroke-miterlimit:10;}
</style>
    <path class="st0" d="M6.4,8.1c1.9,0,3.4-1.5,3.4-3.4S8.3,1.3,6.4,1.3C5.2,1.3,4.1,2,3.5,3"/>
    <path class="st0" d="M12.1,15.9c1.9,0,3.4,1.5,3.4,3.4s-1.5,3.4-3.4,3.4c-1.2,0-2.3-0.7-2.9-1.7"/>
    <rect x="0.2" y="15.4" class="st1" width="11.8" height="1.1"/>
    <rect x="0.2" y="7.5" class="st1" width="6.2" height="1.1"/>
    <path class="st2" d="M18.2,12c2.5,0,4.5-2,4.5-4.5S20.7,3,18.2,3c-2.1,0-3.8,1.4-4.3,3.4"/>
    <rect x="0.2" y="11.2" class="st1" width="18" height="1.7"/>
</svg>
