<?xml version="1.0" encoding="UTF-8" standalone="no"?>
<!-- Created with Inkscape (http://www.inkscape.org/) -->

<svg
   width="11.906304mm"
   height="11.906294mm"
   viewBox="0 0 11.906304 11.906295"
   version="1.1"
   id="svg5"
   xml:space="preserve"
   inkscape:version="1.2.2 (732a01da63, 2022-12-09)"
   sodipodi:docname="помидор в зелегой коробке.svg"
   inkscape:export-filename="помидор в зелегой коробке60x60.svg"
   inkscape:export-xdpi="96"
   inkscape:export-ydpi="96"
   xmlns:inkscape="http://www.inkscape.org/namespaces/inkscape"
   xmlns:sodipodi="http://sodipodi.sourceforge.net/DTD/sodipodi-0.dtd"
   xmlns="http://www.w3.org/2000/svg"
   xmlns:svg="http://www.w3.org/2000/svg"><sodipodi:namedview
     id="namedview7"
     pagecolor="#ffffff"
     bordercolor="#000000"
     borderopacity="0.25"
     inkscape:showpageshadow="2"
     inkscape:pageopacity="0.0"
     inkscape:pagecheckerboard="0"
     inkscape:deskcolor="#d1d1d1"
     inkscape:document-units="mm"
     showgrid="false"
     inkscape:zoom="23.860606"
     inkscape:cx="329.37135"
     inkscape:cy="396.97231"
     inkscape:window-width="1920"
     inkscape:window-height="1017"
     inkscape:window-x="-8"
     inkscape:window-y="-8"
     inkscape:window-maximized="1"
     inkscape:current-layer="layer1"
     inkscape:lockguides="false"><inkscape:grid
       type="xygrid"
       id="grid686"
       originx="-46.660354"
       originy="-145.36596" /></sodipodi:namedview><defs
     id="defs2" /><g
     inkscape:label="Слой 1"
     inkscape:groupmode="layer"
     id="layer1"
     transform="translate(-46.660355,-145.36584)"><g
       id="g326"
       transform="matrix(1.8750064,0,0,1.8750029,-111.86387,-46.424351)"><path
         style="fill:#00ab00;fill-opacity:1;stroke:#0f6200;stroke-width:0.0438955;stroke-linecap:round;stroke-linejoin:round;stroke-miterlimit:3.85;stroke-opacity:1"
         d="m 85.851004,104.71587 -1.283093,-1.10338 1.851738,-1.3026 1.304964,1.18 z"
         id="path2236" /><path
         style="fill:#00ab00;fill-opacity:1;stroke:#0f6a00;stroke-width:0.0438955;stroke-linecap:round;stroke-linejoin:round;stroke-miterlimit:3.85;stroke-opacity:1"
         d="m 87.724613,103.49372 1.880899,1.22598 1.268513,-1.08806 -1.837157,-1.31026 z"
         id="path2238" /><g
         id="g15050"
         transform="matrix(0.09544103,0,0,0.09989029,70.964254,100.4203)"
         style="stroke:none;stroke-opacity:1"><g
           id="g14986"
           transform="matrix(0.55241562,0,0,0.52842624,81.694853,15.60605)"
           style="stroke:none;stroke-opacity:1"><g
             id="g6991"
             transform="matrix(1.1554428,0.02004412,-0.04403993,1.1284784,119.63327,-84.005964)"
             style="opacity:1;stroke:none;stroke-opacity:1"><ellipse
               style="opacity:1;fill:#c2191e;fill-opacity:1;stroke:#5c3434;stroke-width:0.520999;stroke-linecap:round;stroke-linejoin:round;stroke-miterlimit:3.85;stroke-opacity:1"
               id="path5943"
               cx="48.080643"
               cy="121.44355"
               rx="30.516129"
               ry="26.524193" /><ellipse
               style="opacity:1;fill:#d21318;fill-opacity:1;stroke:none;stroke-width:0.520999;stroke-linecap:round;stroke-linejoin:round;stroke-miterlimit:3.85;stroke-opacity:1"
               id="path6670"
               cx="44.266129"
               cy="120.55646"
               rx="26.524193"
               ry="22.975805" /><ellipse
               style="opacity:1;fill:#eb242b;fill-opacity:1;stroke:none;stroke-width:0.520999;stroke-linecap:round;stroke-linejoin:round;stroke-miterlimit:3.85;stroke-opacity:1"
               id="path6862"
               cx="37.258064"
               cy="120.91129"
               rx="19.338709"
               ry="19.604839" /></g><g
             id="g14977"
             transform="translate(39.298387,7.1854839)"
             style="stroke:#44751b;stroke-opacity:1"><path
               style="opacity:1;fill:#19af00;fill-opacity:1;fill-rule:nonzero;stroke:#44751b;stroke-width:0.520999;stroke-linecap:round;stroke-linejoin:round;stroke-miterlimit:3.85;stroke-opacity:1"
               d="m 135.67661,41.882445 c -10.47544,-11.196808 2.22682,-11.949535 2.22682,-11.949535 7.46454,-0.06273 9.62862,4.202723 9.62862,4.202723 -2.85408,-10.757716 -12.35725,-7.464538 -12.35725,-7.464538 7.55863,-7.182266 6.36681,-12.796351 6.36681,-12.796351 -5.95909,9.659991 -10.06772,8.813173 -10.06772,8.813173 0.47045,-8.468174 -6.42954,-11.510444 -6.42954,-11.510444 4.67318,9.628628 -0.0627,10.538173 -0.0627,10.538173 -5.45726,-4.51636 -11.82408,-0.595909 -11.82408,-0.595909 13.95681,1.724998 11.07136,5.143632 11.07136,5.143632 -8.96999,-0.501818 -14.11363,8.813173 -14.11363,8.813173 13.4595,-6.164051 13.96375,-4.582585 15.80726,-3.465679 -0.65864,10.898853 9.75408,10.271582 9.75408,10.271582 z"
               id="path9591"
               sodipodi:nodetypes="ccccccccccccc"
               inkscape:label="path9591" /><path
               style="opacity:1;fill:#179e00;fill-opacity:1;fill-rule:nonzero;stroke:#44751b;stroke-width:0.608729;stroke-linecap:round;stroke-linejoin:round;stroke-miterlimit:3.85;stroke-opacity:1"
               d="m 126.3091,27.457737 c 1.73221,-8.443427 -4.81496,-11.278702 -4.81496,-11.278702 2.32964,-1.654363 2.68406,-2.11208 2.68406,-2.11208 6.82577,7.91353 7.2602,11.476372 7.2602,11.476372 -4.34597,3.083936 -5.1293,1.91441 -5.1293,1.91441 z"
               id="path14967"
               sodipodi:nodetypes="ccccc" /></g></g><path
           style="opacity:1;fill:#fe7676;fill-opacity:1;fill-rule:nonzero;stroke:none;stroke-width:0.300545;stroke-linecap:round;stroke-linejoin:round;stroke-miterlimit:3.85;stroke-opacity:1"
           d="m 163.32724,34.181502 c -8.24448,12.406206 3.91049,17.726716 3.91049,17.726716 -8.85451,-1.759759 -8.79378,-6.368333 -8.79378,-6.368333 0.58419,-8.299732 4.88329,-11.358383 4.88329,-11.358383 z"
           id="path12041"
           sodipodi:nodetypes="cccc" /></g><path
         style="fill:#007f00;fill-opacity:1;stroke:#0d5b00;stroke-width:0.0438955;stroke-linecap:round;stroke-linejoin:round;stroke-miterlimit:3.85;stroke-opacity:1"
         d="m 89.590931,106.71574 -0.0073,0.70494 -1.851738,1.18767 -1.859028,-1.19533 -0.0073,-0.70494 0.554063,0.40611 1.297673,-1.14936 1.304966,1.13403"
         id="path1638" /><path
         style="fill:#00ab00;fill-opacity:1;stroke:#0d5d00;stroke-width:0.0438955;stroke-linecap:round;stroke-linejoin:round;stroke-miterlimit:3.85;stroke-opacity:1"
         d="m 84.582492,105.81159 1.837157,1.29493 1.304964,-1.15701 1.290384,1.14935 1.844447,-1.27961 -1.261221,-1.10338 -1.86632,1.2413 -1.880899,-1.2413 z"
         id="path2234" /><path
         style="fill:none;stroke:#0d5800;stroke-width:0.0436735;stroke-linecap:round;stroke-linejoin:round;stroke-miterlimit:3.85;stroke-opacity:1"
         d="m 87.739305,108.61612 -0.0148,-2.59253"
         id="path2240" /></g></g></svg>
